<svg xmlns="http://www.w3.org/2000/svg" width="20.584" height="19.001" viewBox="0 0 20.584 19.001">
  <g id="Icon_ionic-ios-wallet" data-name="Icon ionic-ios-wallet" transform="translate(-3.375 -4.499)">
    <path id="Path_11661" data-name="Path 11661" d="M20.99,11.25H6.344a2.971,2.971,0,0,0-2.969,2.969v8.313A2.971,2.971,0,0,0,6.344,25.5H20.99a2.971,2.971,0,0,0,2.969-2.969V14.219A2.971,2.971,0,0,0,20.99,11.25Z" transform="translate(0 -2)" fill="#fff"/>
    <path id="Path_11662" data-name="Path 11662" d="M18.3,4.549,6.677,6.82C5.786,7.018,4.5,7.914,4.5,9a3.118,3.118,0,0,1,2.425-.94h14.2V7.048a2.841,2.841,0,0,0-.688-1.86h0A2.34,2.34,0,0,0,18.3,4.549Z" transform="translate(-0.333)" fill="#fff"/>
  </g>
</svg>
