<svg xmlns="http://www.w3.org/2000/svg" width="19.885" height="19.844" viewBox="0 0 19.885 19.844">
  <path id="wallet_1_" data-name="wallet (1)" d="M18.434,15.415a.331.331,0,0,1,.333.331v2.94a1.657,1.657,0,0,1-1.657,1.657H1.657A1.657,1.657,0,0,1,0,18.687V6.341A1.657,1.657,0,0,1,1.657,4.684H17.11a1.657,1.657,0,0,1,1.657,1.657V9.283a.331.331,0,0,1-.332.331c-.345,0-1.133,0-3.064,0A1.989,1.989,0,0,0,13.381,11.6v1.823a1.989,1.989,0,0,0,1.989,1.988C17.329,15.414,18.1,15.417,18.434,15.415ZM19.885,11.6v1.823a1.327,1.327,0,0,1-1.325,1.326H15.37a1.327,1.327,0,0,1-1.326-1.326V11.6a1.327,1.327,0,0,1,1.326-1.326h3.19A1.327,1.327,0,0,1,19.885,11.6Zm-3.273.911a.331.331,0,0,0-.331-.331h-.5a.331.331,0,0,0,0,.663h.5A.331.331,0,0,0,16.612,12.514Zm-.845-9.9-.309-.091a.332.332,0,0,0-.354.113,1.949,1.949,0,0,0-.476,1.029.332.332,0,0,0,.331.359h1.415a.33.33,0,0,0,.326-.39,1.325,1.325,0,0,0-.933-1.019ZM13.962,3.7a2.179,2.179,0,0,1,.348-1.084.331.331,0,0,0-.19-.489l-2.1-.619a.326.326,0,0,0-.418.318V3.69a.331.331,0,0,0,.331.331h1.7A.332.332,0,0,0,13.962,3.7ZM5.8,4.021h.456a.331.331,0,0,0,.331-.331V.831A.331.331,0,0,0,6.256.5H5.8a.331.331,0,0,0-.331.331V3.69A.331.331,0,0,0,5.8,4.021ZM9.611.5H7.581A.331.331,0,0,0,7.25.831V3.69a.331.331,0,0,0,.331.331h3.024a.331.331,0,0,0,.331-.331V1.826A1.327,1.327,0,0,0,9.611.5ZM4.474.5H4.018A1.326,1.326,0,0,0,2.693,1.826V3.69a.331.331,0,0,0,.331.331h1.45a.331.331,0,0,0,.331-.331V.831A.331.331,0,0,0,4.474.5Z" transform="translate(0 -0.5)" fill="#fff"/>
</svg>
